<?xml version="1.0" encoding="UTF-8" standalone="no"?>
<svg xmlns:dc="http://purl.org/dc/elements/1.1/" xmlns:cc="http://creativecommons.org/ns#" xmlns:rdf="http://www.w3.org/1999/02/22-rdf-syntax-ns#" xmlns:svg="http://www.w3.org/2000/svg" xmlns="http://www.w3.org/2000/svg" xml:space="preserve" id="svg2" version="1.1">
	<metadata id="metadata8">
		<RDF>
			<Work rdf:about="">
				<format>
					image/svg+xml
				</format>
				<type rdf:resource="http://purl.org/dc/dcmitype/StillImage" />
			</Work>
		</RDF>
	</metadata>
	<defs id="defs6">
    <linearGradient id="letterColor">
			<stop stop-color="#041E42" />
		</linearGradient>

    <linearGradient id="topHatColor">
			<stop stop-color="#FFD700" />
		</linearGradient>
    <linearGradient id="bottomHatColor">
			<stop stop-color="#FFD700" />
		</linearGradient>
    <linearGradient id="hatThreadColor">
			<stop stop-color="#FFD700" />
		</linearGradient>
	</defs>
	<g transform="matrix(1,0,0,-1,0,75)" id="g10">
		<g transform="scale(0.1)" id="g12">
			<g id="g542">
				<g id="g544">
					<path id="path560" fill="url(#letterColor)" d="M 488.383,214.723 418.816,442.895 H 319.258 L 435.793,125.828 H 539.105 L 653.59,442.895 H 556.957 L 488.383,214.723" />
				</g>
			</g>
			<g id="g562">
				<g id="g564">
					<path id="path580" fill="url(#letterColor)" d="m 200.137,249.281 c 0,-17.609 -4.664,-31.195 -13.969,-40.785 -9.309,-9.59 -22.145,-14.387 -38.508,-14.387 -16.515,0 -29.43,4.871 -38.734,14.606 -9.3088,9.738 -13.9533,23.254 -13.9533,40.566 V 442.895 H 0 V 253.941 c 0,-15.578 2.92969,-33.445 8.82031,-53.613 3.64059,-12.547 10.39449,-24.723 20.26559,-36.543 9.875,-11.82 20.7618,-20.933 32.6563,-27.344 11.9023,-6.421 26.7148,-10.691 44.4338,-12.871 17.711,-2.14 34.054,-3.23 49.039,-3.23 25.898,0 48.098,3.531 66.586,10.59 13.297,5.039 26.004,13.797 38.117,26.265 12.113,12.461 21.004,27.02 26.668,43.668 5.672,16.641 8.512,34.336 8.512,53.078 V 442.895 H 200.137 V 249.281" />
				</g>
			</g>
			<g id="g582">
				<g id="g584">
					<path id="path600" fill="url(#letterColor)" d="m 887.078,312.031 c -18.074,9.258 -47.937,18.313 -89.578,27.157 -16.836,3.441 -27.52,7.238 -32.051,11.382 -4.679,4.004 -7.043,8.532 -7.09,13.606 -0.078,6.941 2.664,12.851 8.219,17.758 5.551,4.898 13.867,7.41 24.926,7.523 13.437,0.133 24.019,-3.008 31.723,-9.398 7.695,-6.403 12.812,-16.711 15.343,-30.934 l 89.41,6.309 c -4.265,32.75 -16.781,56.519 -37.558,71.343 -20.777,14.821 -50.82,22.032 -90.113,21.629 -32.024,-0.32 -57.196,-4.734 -75.504,-13.211 -18.305,-8.492 -31.973,-20.035 -40.989,-34.632 -9.011,-14.602 -13.425,-30.047 -13.257,-46.352 0.246,-24.836 9.406,-45.172 27.484,-61.004 17.934,-15.844 47.801,-28.398 89.602,-37.656 25.515,-5.528 41.773,-11.52 48.757,-17.949 6.973,-6.442 10.508,-13.786 10.59,-22.028 0.086,-8.679 -3.523,-16.347 -10.816,-22.992 -7.289,-6.664 -17.742,-10.055 -31.321,-10.195 -18.238,-0.184 -32.32,6.125 -42.261,18.922 -6.114,7.91 -10.235,19.472 -12.352,34.675 l -90.183,-6.789 c 2.972,-31.976 14.652,-58.25 35.039,-78.789 20.371,-20.554 56.75,-30.554 109.136,-30.027 29.813,0.312 54.496,5 74.008,14.062 19.516,9.079 34.653,22.254 45.406,39.532 10.739,17.281 16.016,36.093 15.805,56.453 -0.176,17.308 -4.433,32.918 -12.765,46.84 -8.333,13.906 -21.536,25.492 -39.61,34.765" />
				</g>
			</g>
			<g id="g602">
				<g id="g604">
					<path id="path620" fill="url(#letterColor)" d="m 1090.86,364.414 h 97.31 V 125.828 h 94.97 v 238.586 h 97.31 v 78.481 h -289.59 v -78.481" />
				</g>
			</g>
			<g id="g622">
				<g id="g624">
					<path id="path640" fill="url(#letterColor)" d="m 979.348,125.828 h 85.543 v 229.953 h -85.543 z" />
				</g>
			</g>
			<g id="g642">
				<g id="g644">
					<path id="path660" fill="url(#letterColor)" d="m 1613.6,442.895 -62.57,-106.094 -61.72,106.094 h -105.7 L 1503.68,258.621 V 125.828 h 94.96 v 132.793 l 120.08,184.274 H 1613.6" />
				</g>
			</g>
			<path id="path662" style="fill:url(#topHatColor);fill-opacity:0.8;fill-rule:nonzero;stroke:none" d="m 1129.93,491.133 c -1.61,-5.492 -57.63,6.031 -125.18,25.722 -23.227,6.786 -44.785,13.641 -63.02,19.946 -34.773,12.043 -57.406,22.066 -56.355,25.687 1.613,5.489 57.645,-6.023 125.185,-25.722 67.55,-19.7 120.98,-40.125 119.37,-45.633" />
			<g id="g664">
				<g id="g666">
					<path id="path680" style="fill:url(#topHatColor);fill-opacity:0.8;fill-rule:nonzero;stroke:none" d="m 907.656,596.246 -115.316,89.969 273.74,22.57 213.84,-164.109 -151.6,-17.961" />
				</g>
			</g>
			<g id="g682">
				<g id="g684">
					<path id="path698" style="fill:url(#topHatColor);fill-opacity:0.8;fill-rule:nonzero;stroke:none" d="m 939.043,544.199 -53.668,18.289 24.176,67.496 c 0,0 85.738,31.426 238.949,-69.945 l -18.57,-68.906 -143.297,40.035" />
				</g>
			</g>
			<path id="path700" fill="url(#hatThreadColor)" d="m 1200.13,604.898 c 0,0 34.6,2.957 47.22,-33.265 12.62,-36.207 -50.35,-120.891 -52.95,-163.352 -2.6,-42.441 -18.98,-73.734 -38.77,-88.754 l -26.47,15.575 c 0,0 29.09,58.632 54.62,73.839 0,0 23.25,60.395 35.83,91.582 12.55,31.196 21.96,70.946 10.07,82.153 -11.89,11.191 -29.55,22.222 -29.55,22.222" />
			<g id="g702">
				<g id="g704">
					<path id="path720" fill="url(#letterColor)" d="m 1066.07,429.32 c 0,-24.269 -19.68,-43.949 -43.95,-43.949 -24.276,0 -43.952,19.68 -43.952,43.949 0,24.278 19.676,43.95 43.952,43.95 24.27,0 43.95,-19.672 43.95,-43.95" />
				</g>
			</g>
		</g>
	</g>
</svg>
